<svg width="40" height="40" viewBox="0 0 40 40" fill="none" xmlns="http://www.w3.org/2000/svg">
<path d="M25.2917 36.6667V34.985C25.2986 34.5451 25.4781 34.1255 25.7914 33.8166C26.1046 33.5077 26.5267 33.3342 26.9667 33.3333H27.0917C29.4783 33.3133 31.5283 31.6567 32.015 29.3533L32.0317 29.2667L32.8983 25L34.465 24.2267C35.3067 23.8133 35.725 23.605 35.815 23.2267C35.9067 22.8467 35.625 22.4767 35.0633 21.735L31.8833 17.555C31.5667 17.1383 31.4083 16.9317 31.325 16.7117C31.2417 16.4917 31.2133 16.1783 31.1617 15.5567C30.5883 8.71167 24.775 3.33333 17.6867 3.33333C10.22 3.33333 4.16666 9.30333 4.16666 16.6667C4.16666 21.25 6.51166 25.2917 10.0833 27.6917M10.0833 27.6917V36.6667M10.0833 27.6917C11.1261 28.3967 12.2635 28.9506 13.4617 29.3367" stroke="#E9CB26" stroke-width="3.06" stroke-linecap="round" stroke-linejoin="round"/>
<path d="M23.3333 15L24.8667 16.3217C25.5117 16.8767 25.8333 17.155 25.8333 17.5C25.8333 17.845 25.5117 18.1233 24.8667 18.6783L23.3333 20M11.6667 15L10.1333 16.3217C9.48832 16.8767 9.16666 17.155 9.16666 17.5C9.16666 17.845 9.48832 18.1233 10.1333 18.6783L11.6667 20M19.1667 13.3333L15.8333 21.6667" stroke="#E9CB26" stroke-width="3.06" stroke-linecap="round" stroke-linejoin="round"/>
</svg>
