<svg width="35" height="35" viewBox="0 0 40 40" fill="none" xmlns="http://www.w3.org/2000/svg">
<path d="M11.5666 3.33334C12.26 3.33334 12.8216 3.87334 12.8216 4.54001V6.97334C13.935 6.95334 15.1833 6.95334 16.5883 6.95334H23.28C24.6833 6.95334 25.9316 6.95334 27.045 6.97501V4.54168C27.045 3.87501 27.6066 3.33334 28.3 3.33334C28.9933 3.33334 29.555 3.87334 29.555 4.54001V7.08334C31.9633 7.26834 33.545 7.72334 34.705 8.84168C35.8683 9.95834 36.3416 11.4783 36.5333 13.795L36.6666 15H3.33331V13.7933C3.52665 11.4767 3.99998 9.95668 5.16165 8.84001C6.32331 7.72334 7.90331 7.26668 10.3116 7.08168V4.54001C10.3116 3.87334 10.8733 3.33334 11.5666 3.33334Z" fill="#FAB724"/>
<path opacity="0.5" d="M36.6667 23.3333V20C36.6667 18.6017 36.66 16.1083 36.6383 15H3.34999C3.32832 16.1083 3.33332 18.6017 3.33332 20V23.3333C3.33332 29.6183 3.33332 32.7617 5.28666 34.7133C7.23999 36.665 10.38 36.6667 16.6667 36.6667H23.3333C29.6167 36.6667 32.76 36.6667 34.7133 34.7133C36.6667 32.76 36.6667 29.62 36.6667 23.3333Z" fill="#FAB724"/>
<path d="M30 28.3333C30 28.7754 29.8244 29.1993 29.5118 29.5118C29.1993 29.8244 28.7754 30 28.3333 30C27.8913 30 27.4674 29.8244 27.1548 29.5118C26.8423 29.1993 26.6667 28.7754 26.6667 28.3333C26.6667 27.8913 26.8423 27.4674 27.1548 27.1548C27.4674 26.8423 27.8913 26.6667 28.3333 26.6667C28.7754 26.6667 29.1993 26.8423 29.5118 27.1548C29.8244 27.4674 30 27.8913 30 28.3333ZM30 21.6667C30 22.1087 29.8244 22.5326 29.5118 22.8452C29.1993 23.1577 28.7754 23.3333 28.3333 23.3333C27.8913 23.3333 27.4674 23.1577 27.1548 22.8452C26.8423 22.5326 26.6667 22.1087 26.6667 21.6667C26.6667 21.2246 26.8423 20.8007 27.1548 20.4882C27.4674 20.1756 27.8913 20 28.3333 20C28.7754 20 29.1993 20.1756 29.5118 20.4882C29.8244 20.8007 30 21.2246 30 21.6667ZM21.6667 28.3333C21.6667 28.7754 21.4911 29.1993 21.1785 29.5118C20.866 29.8244 20.442 30 20 30C19.558 30 19.134 29.8244 18.8215 29.5118C18.5089 29.1993 18.3333 28.7754 18.3333 28.3333C18.3333 27.8913 18.5089 27.4674 18.8215 27.1548C19.134 26.8423 19.558 26.6667 20 26.6667C20.442 26.6667 20.866 26.8423 21.1785 27.1548C21.4911 27.4674 21.6667 27.8913 21.6667 28.3333ZM21.6667 21.6667C21.6667 22.1087 21.4911 22.5326 21.1785 22.8452C20.866 23.1577 20.442 23.3333 20 23.3333C19.558 23.3333 19.134 23.1577 18.8215 22.8452C18.5089 22.5326 18.3333 22.1087 18.3333 21.6667C18.3333 21.2246 18.5089 20.8007 18.8215 20.4882C19.134 20.1756 19.558 20 20 20C20.442 20 20.866 20.1756 21.1785 20.4882C21.4911 20.8007 21.6667 21.2246 21.6667 21.6667ZM13.3333 28.3333C13.3333 28.7754 13.1577 29.1993 12.8452 29.5118C12.5326 29.8244 12.1087 30 11.6667 30C11.2246 30 10.8007 29.8244 10.4882 29.5118C10.1756 29.1993 10 28.7754 10 28.3333C10 27.8913 10.1756 27.4674 10.4882 27.1548C10.8007 26.8423 11.2246 26.6667 11.6667 26.6667C12.1087 26.6667 12.5326 26.8423 12.8452 27.1548C13.1577 27.4674 13.3333 27.8913 13.3333 28.3333ZM13.3333 21.6667C13.3333 22.1087 13.1577 22.5326 12.8452 22.8452C12.5326 23.1577 12.1087 23.3333 11.6667 23.3333C11.2246 23.3333 10.8007 23.1577 10.4882 22.8452C10.1756 22.5326 10 22.1087 10 21.6667C10 21.2246 10.1756 20.8007 10.4882 20.4882C10.8007 20.1756 11.2246 20 11.6667 20C12.1087 20 12.5326 20.1756 12.8452 20.4882C13.1577 20.8007 13.3333 21.2246 13.3333 21.6667Z" fill="#FAB724"/>
</svg>
