<svg width="30" height="30" viewBox="0 0 30 30" fill="none" xmlns="http://www.w3.org/2000/svg">
<path fill-rule="evenodd" clip-rule="evenodd" d="M25 3.75H5C3.625 3.75 2.5 4.875 2.5 6.25V23.75C2.5 25.125 3.625 26.25 5 26.25H25C26.375 26.25 27.5 25.125 27.5 23.75V6.25C27.5 4.875 26.375 3.75 25 3.75ZM11.25 21.25H7.5C6.8125 21.25 6.25 20.6875 6.25 20C6.25 19.3125 6.8125 18.75 7.5 18.75H11.25C11.9375 18.75 12.5 19.3125 12.5 20C12.5 20.6875 11.9375 21.25 11.25 21.25ZM11.25 16.25H7.5C6.8125 16.25 6.25 15.6875 6.25 15C6.25 14.3125 6.8125 13.75 7.5 13.75H11.25C11.9375 13.75 12.5 14.3125 12.5 15C12.5 15.6875 11.9375 16.25 11.25 16.25ZM11.25 11.25H7.5C6.8125 11.25 6.25 10.6875 6.25 10C6.25 9.3125 6.8125 8.75 7.5 8.75H11.25C11.9375 8.75 12.5 9.3125 12.5 10C12.5 10.6875 11.9375 11.25 11.25 11.25ZM23.375 13.9L19.4125 17.8625C18.925 18.35 18.125 18.35 17.6375 17.8625L15.875 16.0875C15.7593 15.9718 15.6675 15.8344 15.6048 15.6832C15.5422 15.532 15.51 15.3699 15.51 15.2062C15.51 15.0426 15.5422 14.8805 15.6048 14.7293C15.6675 14.5781 15.7593 14.4407 15.875 14.325C15.9907 14.2093 16.1281 14.1175 16.2793 14.0548C16.4305 13.9922 16.5926 13.96 16.7562 13.96C16.9199 13.96 17.082 13.9922 17.2332 14.0548C17.3844 14.1175 17.5218 14.2093 17.6375 14.325L18.525 15.2125L21.6125 12.125C21.7281 12.0091 21.8655 11.9172 22.0167 11.8545C22.1679 11.7917 22.33 11.7594 22.4938 11.7594C22.6575 11.7594 22.8196 11.7917 22.9708 11.8545C23.122 11.9172 23.2594 12.0091 23.375 12.125L23.3875 12.1375C23.8625 12.625 23.8625 13.425 23.375 13.9Z" fill="#0FA958"/>
</svg>
