<svg width="24" height="24" viewBox="0 0 24 24" fill="none" xmlns="http://www.w3.org/2000/svg">
<path fill-rule="evenodd" clip-rule="evenodd" d="M19.495 3.13308C19.7166 2.99979 19.9812 2.95752 20.2332 3.01513C20.4853 3.07274 20.7053 3.22577 20.847 3.44208L21.837 4.95208C21.966 5.14934 22.0213 5.38585 21.9929 5.61987C21.9645 5.85388 21.8544 6.07036 21.682 6.23108L21.679 6.23508L21.665 6.24808L21.608 6.30108L21.383 6.51608C20.138 7.72374 18.9308 8.96967 17.763 10.2521C15.566 12.6681 12.957 15.8301 11.201 18.8981C10.711 19.7541 9.51397 19.9381 8.80397 19.1991L2.31897 12.4611C2.22604 12.3645 2.15347 12.2502 2.10559 12.125C2.05771 11.9998 2.03548 11.8662 2.04024 11.7323C2.045 11.5983 2.07664 11.4667 2.13329 11.3452C2.18993 11.2237 2.27042 11.1148 2.36997 11.0251L4.32997 9.25708C4.50222 9.10179 4.72308 9.01119 4.95475 9.0008C5.18643 8.9904 5.41451 9.06085 5.59997 9.20008L8.90897 11.6811C14.078 6.58408 17.009 4.62808 19.495 3.13308ZM19.705 5.34908C17.415 6.78108 14.557 8.85808 9.70697 13.7071C9.53678 13.8773 9.31091 13.9804 9.07083 13.9975C8.83074 14.0146 8.59255 13.9445 8.39997 13.8001L5.05797 11.2941L4.47697 11.8181L9.79397 17.3441C11.64 14.2741 14.181 11.2181 16.284 8.90608C17.3914 7.68957 18.5336 6.50508 19.709 5.35408L19.705 5.34908Z" fill="#57AD2C"/>
</svg>
