<svg width="40" height="40" viewBox="0 0 40 40" fill="none" xmlns="http://www.w3.org/2000/svg">
<path d="M9.99999 33.3334H21.6667V36.6667H9.99999C8.14999 36.6667 6.66666 35.1834 6.66666 33.3334V6.66671C6.66666 5.78265 7.01785 4.93481 7.64297 4.30968C8.26809 3.68456 9.11593 3.33337 9.99999 3.33337H30C30.884 3.33337 31.7319 3.68456 32.357 4.30968C32.9821 4.93481 33.3333 5.78265 33.3333 6.66671V20.9L30.8333 19.5334L30 20V6.66671H21.6667V20L17.5 16.25L13.3333 20V6.66671H9.99999V33.3334ZM40 28.3334L30.8333 23.3334L21.6667 28.3334L30.8333 33.3334L40 28.3334ZM25 31.8167V35.15L30.8333 38.3334L36.6667 35.15V31.8167L30.8333 35L25 31.8167Z" fill="#fb1"/>
</svg>
