<svg width="35" height="35" viewBox="0 0 40 40" fill="none" xmlns="http://www.w3.org/2000/svg">
<path opacity="0.3" d="M33.3334 13.3333L20 21.6667L6.66669 13.3333V30H33.3334V13.3333ZM33.3334 10H6.66669L20 18.3167L33.3334 10Z" fill="#FAB724"/>
<path d="M6.66665 33.3334H33.3333C35.1666 33.3334 36.6666 31.8334 36.6666 30V10C36.6666 8.16669 35.1666 6.66669 33.3333 6.66669H6.66665C4.83331 6.66669 3.33331 8.16669 3.33331 10V30C3.33331 31.8334 4.83331 33.3334 6.66665 33.3334ZM33.3333 10L20 18.3167L6.66665 10H33.3333ZM6.66665 13.3334L20 21.6667L33.3333 13.3334V30H6.66665V13.3334Z" fill="#FAB724"/>
</svg>
