<svg width="25" height="25" viewBox="0 0 25 25" fill="none" xmlns="http://www.w3.org/2000/svg">
<g clip-path="url(#clip0_1_81)">
<path d="M22.4514 4.16666C22.3567 4.15691 22.2613 4.15691 22.1667 4.16666H2.72224C2.59762 4.16858 2.47382 4.18727 2.35419 4.22222L12.3889 14.2153L22.4514 4.16666Z" fill="#E9CB26"/>
<path d="M23.4791 5.13195L13.368 15.2014C13.1078 15.4601 12.7558 15.6053 12.3889 15.6053C12.022 15.6053 11.6699 15.4601 11.4097 15.2014L1.38888 5.20834C1.35808 5.32156 1.34174 5.43823 1.34027 5.55556V19.4444C1.34027 19.8128 1.4866 20.1661 1.74707 20.4265C2.00753 20.687 2.3608 20.8333 2.72916 20.8333H22.1736C22.5419 20.8333 22.8952 20.687 23.1557 20.4265C23.4162 20.1661 23.5625 19.8128 23.5625 19.4444V5.55556C23.557 5.41087 23.5288 5.26794 23.4791 5.13195ZM3.68055 19.4444H2.71527V18.4514L7.76388 13.4444L8.74304 14.4236L3.68055 19.4444ZM22.1597 19.4444H21.1875L16.125 14.4236L17.1042 13.4444L22.1528 18.4514L22.1597 19.4444Z" fill="#E9CB26"/>
</g>
<defs>
<clipPath id="clip0_1_81">
<rect width="25" height="25" rx="8" fill="white"/>
</clipPath>
</defs>
</svg>
