<svg width="19" height="15" viewBox="0 0 19 15" fill="none" xmlns="http://www.w3.org/2000/svg">
<path d="M8.42618 12H5.01709L6.46595 3.27271H9.73868C10.6364 3.27271 11.3864 3.45309 11.9886 3.81389C12.5909 4.17469 13.0185 4.69031 13.2713 5.36077C13.5241 6.03122 13.5739 6.82953 13.4205 7.75566C13.2727 8.64771 12.973 9.41048 12.5213 10.044C12.0724 10.6776 11.4986 11.1619 10.7997 11.4972C10.1037 11.8324 9.31254 12 8.42618 12ZM7.71879 9.98862H8.57959C9.0114 9.98862 9.39635 9.91333 9.73442 9.76276C10.0753 9.60935 10.3594 9.35367 10.5866 8.99572C10.8168 8.63492 10.983 8.14202 11.0852 7.51702C11.1818 6.92611 11.179 6.47014 11.0767 6.14912C10.9744 5.82525 10.7798 5.60083 10.4929 5.47583C10.206 5.34799 9.83527 5.28407 9.38072 5.28407H8.50288L7.71879 9.98862Z" fill="#00E51E"/>
<path d="M6.06247 3.27271H8.3977L7.40906 9.25566C7.31247 9.82384 7.08804 10.3239 6.73577 10.7557C6.38349 11.1847 5.93889 11.5199 5.40196 11.7614C4.86503 12 4.2727 12.1193 3.62497 12.1193C3.06815 12.1193 2.57383 12.0227 2.14202 11.8295C1.71304 11.6335 1.39486 11.3267 1.18747 10.9091C0.982929 10.4886 0.937474 9.94316 1.05111 9.27271H3.42042C3.39202 9.4943 3.3977 9.68038 3.43747 9.83095C3.47724 9.97867 3.55111 10.0909 3.65906 10.1676C3.76702 10.2415 3.90906 10.2784 4.0852 10.2784C4.26133 10.2784 4.41616 10.2401 4.54969 10.1634C4.68321 10.0838 4.794 9.96873 4.88207 9.81816C4.97014 9.66475 5.03406 9.47725 5.07383 9.25566L6.06247 3.27271Z" fill="white"/>
<path d="M18.0596 6.54548H15.6902C15.7073 6.34378 15.6959 6.16196 15.6561 6.00003C15.6164 5.8381 15.5482 5.69889 15.4516 5.58242C15.355 5.4631 15.2286 5.37219 15.0723 5.30969C14.9161 5.24719 14.73 5.21594 14.5141 5.21594C14.0993 5.21594 13.7286 5.31963 13.4019 5.52702C13.0752 5.73156 12.8039 6.0256 12.588 6.40912C12.3721 6.7898 12.2187 7.24435 12.1277 7.77276C12.0482 8.28412 12.0454 8.70884 12.1192 9.04691C12.1959 9.38497 12.3451 9.63781 12.5667 9.80543C12.7911 9.97304 13.0823 10.0568 13.4402 10.0568C13.6789 10.0568 13.8976 10.0284 14.0965 9.97162C14.2982 9.9148 14.4772 9.83384 14.6334 9.72872C14.7925 9.62077 14.9275 9.49293 15.0383 9.3452C15.1519 9.19463 15.2385 9.02844 15.2982 8.84662H17.6846C17.5937 9.21594 17.4317 9.59378 17.1988 9.98014C16.9658 10.3636 16.6647 10.7173 16.2954 11.0412C15.926 11.3622 15.4914 11.6222 14.9914 11.821C14.4914 12.0199 13.9289 12.1193 13.3039 12.1193C12.4857 12.1193 11.7797 11.9403 11.186 11.5824C10.5951 11.2244 10.1661 10.7017 9.89909 10.0142C9.63488 9.32673 9.58233 8.48867 9.74142 7.50003C9.90051 6.54548 10.2144 5.74577 10.6831 5.10088C11.1519 4.456 11.7215 3.9702 12.3919 3.6435C13.0624 3.31679 13.7755 3.15344 14.5311 3.15344C15.1022 3.15344 15.6135 3.22872 16.0652 3.37929C16.5198 3.52986 16.9019 3.75003 17.2115 4.0398C17.524 4.32673 17.7542 4.68043 17.9019 5.10088C18.0496 5.52134 18.1022 6.00287 18.0596 6.54548Z" fill="white"/>
</svg>
