<svg width="40" height="40" viewBox="0 0 40 40" fill="none" xmlns="http://www.w3.org/2000/svg">
<g clip-path="url(#clip0_104_34)">
<path d="M30.625 0H9.375C4.19733 0 0 4.19733 0 9.375V30.625C0 35.8027 4.19733 40 9.375 40H30.625C35.8027 40 40 35.8027 40 30.625V9.375C40 4.19733 35.8027 0 30.625 0Z" fill="#242938"/>
<path d="M20.0002 4.6875C11.3717 4.6875 4.375 11.6828 4.375 20.3127C4.375 27.2163 8.85203 33.0731 15.0605 35.1392C15.8413 35.2839 16.128 34.8003 16.128 34.3877C16.128 34.015 16.1134 32.7842 16.1067 31.4786C11.7598 32.4237 10.8427 29.635 10.8427 29.635C10.1317 27.8289 9.10766 27.3487 9.10766 27.3487C7.69 26.3789 9.21453 26.3989 9.21453 26.3989C10.7836 26.5091 11.6098 28.0091 11.6098 28.0091C13.0034 30.3978 15.2652 29.7072 16.1567 29.308C16.297 28.298 16.7019 27.6088 17.1487 27.2186C13.6783 26.8234 10.03 25.4836 10.03 19.4966C10.03 17.7906 10.6403 16.3967 11.6398 15.3025C11.4775 14.9089 10.9427 13.3197 11.7911 11.1675C11.7911 11.1675 13.1033 10.7477 16.0892 12.7691C17.3356 12.423 18.6722 12.2494 20.0002 12.2434C21.328 12.2494 22.6658 12.423 23.9144 12.7692C26.8967 10.7475 28.207 11.1677 28.207 11.1677C29.0575 13.3197 28.5225 14.9091 28.3602 15.3025C29.362 16.3967 29.9683 17.7906 29.9683 19.4966C29.9683 25.498 26.313 26.8194 22.8336 27.2061C23.3941 27.6911 23.8934 28.6419 23.8934 30.0997C23.8934 32.1903 23.8753 33.873 23.8753 34.3877C23.8753 34.8034 24.1566 35.2906 24.9486 35.1372C31.1536 33.0688 35.625 27.2139 35.625 20.3127C35.625 11.683 28.6292 4.6875 20.0002 4.6875ZM10.2272 26.9458C10.1928 27.0234 10.0706 27.0467 9.95938 26.9934C9.84594 26.9425 9.78234 26.8366 9.81906 26.7587C9.85266 26.6787 9.97516 26.6566 10.0881 26.7102C10.2017 26.7611 10.2664 26.868 10.2272 26.9458ZM10.9958 27.6316C10.9213 27.7008 10.7755 27.6686 10.6767 27.5594C10.5745 27.4505 10.5553 27.3048 10.6309 27.2347C10.7077 27.1656 10.8491 27.198 10.9514 27.3069C11.0536 27.4172 11.0736 27.5617 10.9958 27.6316ZM11.523 28.5091C11.4272 28.5756 11.2706 28.5133 11.1739 28.3742C11.0781 28.2353 11.0781 28.0688 11.1759 28.0019C11.273 27.9352 11.4272 27.9952 11.5253 28.1331C11.6208 28.2744 11.6208 28.4411 11.523 28.5091ZM12.4147 29.5253C12.3291 29.6197 12.1467 29.5944 12.0131 29.4655C11.8766 29.3395 11.8384 29.1608 11.9244 29.0663C12.0111 28.9716 12.1945 28.9983 12.3291 29.1261C12.4647 29.2517 12.5061 29.4319 12.4147 29.5253ZM13.5672 29.8683C13.5294 29.9908 13.3538 30.0464 13.1767 29.9944C13.0002 29.9408 12.8844 29.7975 12.9202 29.6738C12.9569 29.5506 13.1333 29.4927 13.3116 29.5483C13.4881 29.6016 13.6039 29.7439 13.5672 29.8683ZM14.8787 30.0139C14.8831 30.1427 14.7331 30.2495 14.5473 30.2519C14.3605 30.2561 14.2094 30.1517 14.2073 30.025C14.2073 29.8948 14.3541 29.7891 14.5408 29.7859C14.7267 29.7823 14.8787 29.8858 14.8787 30.0139ZM16.1672 29.9645C16.1895 30.0902 16.0605 30.2194 15.8759 30.2537C15.6945 30.2869 15.5266 30.2092 15.5036 30.0845C15.4811 29.9556 15.6125 29.8266 15.7936 29.7931C15.9784 29.7611 16.1438 29.8367 16.1672 29.9645Z" fill="white"/>
</g>
<defs>
<clipPath id="clip0_104_34">
<rect width="40" height="40" fill="white"/>
</clipPath>
</defs>
</svg>
