<svg width="35" height="35" viewBox="0 0 35 35" fill="none" xmlns="http://www.w3.org/2000/svg">
<path d="M30.625 4.375H4.37504C3.60149 4.375 2.85963 4.68229 2.31265 5.22927C1.76566 5.77625 1.45837 6.51812 1.45837 7.29167V11.6667H4.37504V7.29167H30.625V27.7083H20.4167V30.625H30.625C31.3986 30.625 32.1405 30.3177 32.6874 29.7707C33.2344 29.2237 33.5417 28.4819 33.5417 27.7083V7.29167C33.5417 6.51812 33.2344 5.77625 32.6874 5.22927C32.1405 4.68229 31.3986 4.375 30.625 4.375ZM1.45837 26.25V30.625H5.83337C5.83337 29.4647 5.37244 28.3519 4.55197 27.5314C3.73149 26.7109 2.6187 26.25 1.45837 26.25ZM1.45837 20.4167V23.3333C2.41593 23.3333 3.36411 23.5219 4.24877 23.8884C5.13344 24.2548 5.93727 24.7919 6.61436 25.469C7.29145 26.1461 7.82855 26.9499 8.195 27.8346C8.56144 28.7193 8.75004 29.6674 8.75004 30.625H11.6667C11.6667 27.9176 10.5912 25.3211 8.67676 23.4066C6.76232 21.4922 4.16579 20.4167 1.45837 20.4167ZM1.45837 14.5833V17.5C3.18197 17.5 4.8887 17.8395 6.48109 18.4991C8.07349 19.1587 9.52038 20.1255 10.7392 21.3442C11.9579 22.563 12.9247 24.0099 13.5843 25.6023C14.2439 27.1947 14.5834 28.9014 14.5834 30.625H17.5C17.5 21.7583 10.3105 14.5833 1.45837 14.5833ZM16.0417 16.1729V19.0896L21.1459 21.875L26.25 19.0896V16.1729L21.1459 18.9583L16.0417 16.1729ZM21.1459 8.75L13.125 13.125L21.1459 17.5L29.1667 13.125L21.1459 8.75Z" fill="#FFBB11"/>
</svg>
