<svg width="35" height="35" viewBox="0 0 35 35" fill="none" xmlns="http://www.w3.org/2000/svg">
<path opacity="0.3" d="M7.40837 11.6667H11.7105C12.1771 9.84375 12.848 8.09375 13.723 6.475C11.0396 7.39375 8.80837 9.24583 7.40837 11.6667ZM10.9375 17.5C10.9375 16.5083 11.025 15.5458 11.1417 14.5833H6.21254C5.97921 15.5167 5.83337 16.4937 5.83337 17.5C5.83337 18.5062 5.97921 19.4833 6.21254 20.4167H11.1417C11.025 19.4542 10.9375 18.4917 10.9375 17.5ZM7.40837 23.3333C8.81821 25.7688 11.0608 27.6126 13.723 28.525C12.8434 26.8828 12.1676 25.1393 11.7105 23.3333H7.40837ZM17.5 5.89166C16.2896 7.64166 15.3417 9.58125 14.7146 11.6667H20.2855C19.6584 9.58125 18.7105 7.64166 17.5 5.89166ZM27.5917 11.6667C26.1788 9.23376 23.9373 7.39083 21.2771 6.475C22.1521 8.09375 22.823 9.84375 23.2896 11.6667H27.5917ZM17.5 29.1083C18.7105 27.3583 19.6584 25.4187 20.2855 23.3333H14.7146C15.3417 25.4187 16.2896 27.3583 17.5 29.1083ZM21.2771 28.525C23.9373 27.6092 26.1788 25.7662 27.5917 23.3333H23.2896C22.8325 25.1393 22.1567 26.8828 21.2771 28.525ZM28.7875 14.5833H23.8584C23.975 15.5458 24.0625 16.5083 24.0625 17.5C24.0625 18.4917 23.975 19.4542 23.8584 20.4167H28.7875C29.0209 19.4833 29.1667 18.5062 29.1667 17.5C29.1667 16.4937 29.0209 15.5167 28.7875 14.5833ZM14.0875 14.5833C13.9563 15.5312 13.8542 16.5083 13.8542 17.5C13.8542 18.4917 13.9563 19.4542 14.0875 20.4167H20.9125C21.0438 19.4542 21.1459 18.4917 21.1459 17.5C21.1459 16.5083 21.0438 15.5312 20.9125 14.5833H14.0875Z" fill="#FFBB11"/>
<path d="M17.4854 2.91666C9.43538 2.91666 2.91663 9.44999 2.91663 17.5C2.91663 25.55 9.43538 32.0833 17.4854 32.0833C25.55 32.0833 32.0833 25.55 32.0833 17.5C32.0833 9.44999 25.55 2.91666 17.4854 2.91666ZM27.5916 11.6667H23.2895C22.8324 9.86067 22.1566 8.11723 21.277 6.47499C23.9372 7.39083 26.1787 9.23375 27.5916 11.6667ZM17.5 5.89166C18.7104 7.64166 19.6583 9.58124 20.2854 11.6667H14.7145C15.3416 9.58124 16.2895 7.64166 17.5 5.89166ZM6.21246 20.4167C5.97913 19.4833 5.83329 18.5062 5.83329 17.5C5.83329 16.4937 5.97913 15.5167 6.21246 14.5833H11.1416C11.025 15.5458 10.9375 16.5083 10.9375 17.5C10.9375 18.4917 11.025 19.4542 11.1416 20.4167H6.21246ZM7.40829 23.3333H11.7104C12.177 25.1562 12.8479 26.9062 13.7229 28.525C11.0608 27.6126 8.81813 25.7688 7.40829 23.3333ZM11.7104 11.6667H7.40829C8.81813 9.23117 11.0608 7.38734 13.7229 6.47499C12.8433 8.11723 12.1675 9.86067 11.7104 11.6667ZM17.5 29.1083C16.2895 27.3583 15.3416 25.4187 14.7145 23.3333H20.2854C19.6583 25.4187 18.7104 27.3583 17.5 29.1083ZM20.9125 20.4167H14.0875C13.9562 19.4542 13.8541 18.4917 13.8541 17.5C13.8541 16.5083 13.9562 15.5312 14.0875 14.5833H20.9125C21.0437 15.5312 21.1458 16.5083 21.1458 17.5C21.1458 18.4917 21.0437 19.4542 20.9125 20.4167ZM21.277 28.525C22.152 26.9062 22.8229 25.1562 23.2895 23.3333H27.5916C26.1787 25.7662 23.9372 27.6092 21.277 28.525ZM23.8583 20.4167C23.975 19.4542 24.0625 18.4917 24.0625 17.5C24.0625 16.5083 23.975 15.5458 23.8583 14.5833H28.7875C29.0208 15.5167 29.1666 16.4937 29.1666 17.5C29.1666 18.5062 29.0208 19.4833 28.7875 20.4167H23.8583Z" fill="#FFBB11"/>
</svg>
