<svg width="25" height="25" viewBox="0 0 25 25" fill="none" xmlns="http://www.w3.org/2000/svg">
<path d="M12.5 2.08334C7.91669 2.08334 4.16669 5.83334 4.16669 10.4167C4.16669 16.0417 11.4584 22.3958 11.7709 22.7083C11.9792 22.8125 12.2917 22.9167 12.5 22.9167C12.7084 22.9167 13.0209 22.8125 13.2292 22.7083C13.5417 22.3958 20.8334 16.0417 20.8334 10.4167C20.8334 5.83334 17.0834 2.08334 12.5 2.08334ZM12.5 20.5208C10.3125 18.4375 6.25002 13.9583 6.25002 10.4167C6.25002 6.97917 9.06252 4.16667 12.5 4.16667C15.9375 4.16667 18.75 6.97917 18.75 10.4167C18.75 13.8542 14.6875 18.4375 12.5 20.5208ZM12.5 6.25C10.2084 6.25 8.33335 8.125 8.33335 10.4167C8.33335 12.7083 10.2084 14.5833 12.5 14.5833C14.7917 14.5833 16.6667 12.7083 16.6667 10.4167C16.6667 8.125 14.7917 6.25 12.5 6.25ZM12.5 12.5C11.3542 12.5 10.4167 11.5625 10.4167 10.4167C10.4167 9.27084 11.3542 8.33334 12.5 8.33334C13.6459 8.33334 14.5834 9.27084 14.5834 10.4167C14.5834 11.5625 13.6459 12.5 12.5 12.5Z" fill="#E9CB26"/>
</svg>
