<svg width="35" height="35" viewBox="0 0 35 35" fill="none" xmlns="http://www.w3.org/2000/svg">
<path opacity="0.2" d="M26.25 29.5312V5.46875C26.25 4.88859 26.0195 4.33219 25.6093 3.92195C25.1991 3.51172 24.6427 3.28125 24.0625 3.28125H10.9375C10.3573 3.28125 9.80094 3.51172 9.3907 3.92195C8.98047 4.33219 8.75 4.88859 8.75 5.46875V29.5312C8.75 30.1114 8.98047 30.6678 9.3907 31.078C9.80094 31.4883 10.3573 31.7188 10.9375 31.7188H24.0625C24.6427 31.7188 25.1991 31.4883 25.6093 31.078C26.0195 30.6678 26.25 30.1114 26.25 29.5312Z" fill="#FFBB11"/>
<path d="M24.0625 32.8125H10.9375C10.0673 32.8125 9.23266 32.4668 8.61731 31.8514C8.00195 31.2361 7.65625 30.4015 7.65625 29.5312V5.46875C7.65625 4.59851 8.00195 3.76391 8.61731 3.14856C9.23266 2.5332 10.0673 2.1875 10.9375 2.1875H24.0625C24.9327 2.1875 25.7673 2.5332 26.3827 3.14856C26.998 3.76391 27.3437 4.59851 27.3438 5.46875V29.5312C27.3437 30.4015 26.998 31.2361 26.3827 31.8514C25.7673 32.4668 24.9327 32.8125 24.0625 32.8125ZM25.1562 5.46875C25.1562 5.17867 25.041 4.90047 24.8359 4.69535C24.6308 4.49023 24.3526 4.375 24.0625 4.375H10.9375C10.6474 4.375 10.3692 4.49023 10.1641 4.69535C9.95898 4.90047 9.84375 5.17867 9.84375 5.46875V29.5312C9.84375 29.8213 9.95898 30.0995 10.1641 30.3046C10.3692 30.5098 10.6474 30.625 10.9375 30.625H24.0625C24.3526 30.625 24.6308 30.5098 24.8359 30.3046C25.041 30.0995 25.1562 29.8213 25.1562 29.5312V5.46875ZM19.1406 26.7969C19.1406 26.4724 19.0444 26.1552 18.8641 25.8854C18.6839 25.6156 18.4276 25.4053 18.1278 25.2811C17.8281 25.157 17.4982 25.1245 17.1799 25.1878C16.8617 25.2511 16.5693 25.4073 16.3399 25.6368C16.1105 25.8662 15.9542 26.1586 15.8909 26.4768C15.8276 26.7951 15.8601 27.1249 15.9843 27.4247C16.1084 27.7245 16.3187 27.9807 16.5885 28.161C16.8583 28.3413 17.1755 28.4375 17.5 28.4375C17.9351 28.4375 18.3524 28.2646 18.6601 27.957C18.9678 27.6493 19.1406 27.232 19.1406 26.7969Z" fill="#FFBB11"/>
</svg>
