<svg width="17" height="17" viewBox="0 0 17 17" fill="none" xmlns="http://www.w3.org/2000/svg">
<path d="M9.69471 8.6842C9.50611 8.88913 9.25351 9.00252 8.99131 8.99996C8.72911 8.99739 8.4783 8.87908 8.29289 8.6705C8.10748 8.46191 8.00232 8.17975 8.00004 7.88478C7.99776 7.5898 8.09855 7.30563 8.28071 7.09345L14.2807 0.343449C14.373 0.236001 14.4833 0.150295 14.6053 0.0913352C14.7273 0.0323751 14.8585 0.00134052 14.9913 4.24767e-05C15.1241 -0.00125557 15.2558 0.0272086 15.3787 0.0837746C15.5016 0.140341 15.6132 0.223875 15.7071 0.329505C15.801 0.435134 15.8753 0.560743 15.9255 0.699001C15.9758 0.837259 16.0011 0.985399 16 1.13478C15.9988 1.28415 15.9712 1.43177 15.9188 1.56903C15.8664 1.70628 15.7902 1.83042 15.6947 1.9342L9.69471 8.6842Z" fill="#0FA958"/>
<path d="M13.8462 14.1198V10.0814C13.8462 9.77535 13.9677 9.48187 14.1841 9.26548C14.4005 9.04909 14.694 8.92753 15 8.92753C15.306 8.92753 15.5995 9.04909 15.8159 9.26548C16.0323 9.48187 16.1538 9.77535 16.1538 10.0814V15.2737C16.1538 15.5797 16.0323 15.8732 15.8159 16.0896C15.5995 16.306 15.306 16.4275 15 16.4275H1.15385C0.847827 16.4275 0.554342 16.306 0.337954 16.0896C0.121566 15.8732 0 15.5797 0 15.2737V1.42753C0 1.12151 0.121566 0.828024 0.337954 0.611636C0.554342 0.395247 0.847827 0.273682 1.15385 0.273682H6.34615C6.65217 0.273682 6.94566 0.395247 7.16205 0.611636C7.37843 0.828024 7.5 1.12151 7.5 1.42753C7.5 1.73355 7.37843 2.02703 7.16205 2.24342C6.94566 2.45981 6.65217 2.58137 6.34615 2.58137H2.30769V14.1198H13.8462ZM16.1538 6.04291C16.1538 6.34893 16.0323 6.64242 15.8159 6.8588C15.5995 7.07519 15.306 7.19676 15 7.19676C14.694 7.19676 14.4005 7.07519 14.1841 6.8588C13.9677 6.64242 13.8462 6.34893 13.8462 6.04291V1.42753C13.8462 1.12151 13.9677 0.828024 14.1841 0.611636C14.4005 0.395247 14.694 0.273682 15 0.273682C15.306 0.273682 15.5995 0.395247 15.8159 0.611636C16.0323 0.828024 16.1538 1.12151 16.1538 1.42753V6.04291Z" fill="#0FA958"/>
<path d="M10.1667 2C9.85725 2 9.5605 1.89464 9.34171 1.70711C9.12292 1.51957 9 1.26522 9 1C9 0.734784 9.12292 0.48043 9.34171 0.292893C9.5605 0.105357 9.85725 0 10.1667 0H14.8333C15.1428 0 15.4395 0.105357 15.6583 0.292893C15.8771 0.48043 16 0.734784 16 1C16 1.26522 15.8771 1.51957 15.6583 1.70711C15.4395 1.89464 15.1428 2 14.8333 2H10.1667Z" fill="#0FA958"/>
</svg>
