<svg width="30" height="30" viewBox="0 0 40 40" fill="none" xmlns="http://www.w3.org/2000/svg">
<path opacity="0.3" d="M11.6667 6.66666H26.6667V30H11.6667V6.66666Z" fill="#FAB724"/>
<path d="M25.8333 1.66666H12.5C11.3949 1.66666 10.3351 2.10564 9.5537 2.88704C8.7723 3.66845 8.33331 4.72825 8.33331 5.83332V34.1667C8.33331 35.2717 8.7723 36.3315 9.5537 37.1129C10.3351 37.8943 11.3949 38.3333 12.5 38.3333H25.8333C26.9384 38.3333 27.9982 37.8943 28.7796 37.1129C29.561 36.3315 30 35.2717 30 34.1667V5.83332C30 4.72825 29.561 3.66845 28.7796 2.88704C27.9982 2.10564 26.9384 1.66666 25.8333 1.66666ZM19.1666 36.6667C17.7833 36.6667 16.6666 35.55 16.6666 34.1667C16.6666 32.7833 17.7833 31.6667 19.1666 31.6667C20.55 31.6667 21.6666 32.7833 21.6666 34.1667C21.6666 35.55 20.55 36.6667 19.1666 36.6667ZM26.6666 30H11.6666V6.66666H26.6666V30Z" fill="#FAB724"/>
</svg>
