<svg width="25" height="25" viewBox="0 0 26 26" fill="none" xmlns="http://www.w3.org/2000/svg">
<path d="M21.0886 22.2095L21.0752 22.2308L21.0551 22.2629C20.8992 22.5126 20.6819 22.7183 20.424 22.8603C20.1663 23.0022 19.8766 23.0758 19.5824 23.0741L19.5834 23.0742L19.5848 22.5742L19.5818 23.0741L18.4923 23.0712C16.3245 23.0652 14.1791 22.6324 12.1786 21.7973C10.1781 20.9622 8.36163 19.7413 6.83295 18.2043C5.30428 16.6672 4.09332 14.8441 3.26922 12.839C2.44512 10.834 2.02402 8.6862 2.02996 6.51839L2.03294 5.4289C2.03294 5.42868 2.03294 5.42846 2.03294 5.42824L2.03294 5.42738L2.53294 5.42875C2.53288 5.21971 2.58631 5.01412 2.68815 4.83156C2.78999 4.649 2.93685 4.49553 3.11476 4.38576L21.0886 22.2095ZM21.0886 22.2095L21.0998 22.1869L23.1945 17.9645L23.3788 17.5929L23.0477 17.3431L16.9754 12.7628L16.676 12.537L16.3754 12.7612L13.7221 14.7397C12.8551 14.6449 12.0445 14.2561 11.427 13.6352C10.8095 13.0143 10.4251 12.2015 10.3352 11.3341L12.3282 8.69172L12.554 8.39234L12.3298 8.09173L7.78295 1.99449L7.53497 1.66196L7.16238 1.84427L2.96451 3.89821L2.96391 3.8985L2.92906 3.91549L2.90573 3.92687L2.8837 3.9406L2.85221 3.96024C2.85182 3.96048 2.85144 3.96072 2.85105 3.96096L21.0886 22.2095ZM7.85424 10.3682L7.75388 10.5013L7.75343 10.6679L7.75271 10.9283L7.75271 10.9289C7.74997 12.6199 8.41814 14.243 9.61062 15.4421C10.8031 16.6411 12.4225 17.3182 14.1136 17.3247L14.1141 17.3247L14.3745 17.3254L14.5412 17.3258L14.6748 17.2262L16.6673 15.7404L20.1384 18.3585L19.0709 20.5102L18.4994 20.5087C10.8104 20.4876 4.57139 14.2143 4.59245 6.52541L4.59401 5.95367L6.75159 4.8982L9.35095 8.38387L7.85424 10.3682Z" fill="#E9CB26" stroke="#E9CB26"/>
</svg>
