<svg width="20" height="20" viewBox="0 0 20 20" fill="none" xmlns="http://www.w3.org/2000/svg">
<g clip-path="url(#clip0_50_630)">
<path d="M19.6875 0.122768C19.9331 0.301339 20.0335 0.539435 19.9889 0.837054L17.1317 17.9799C17.0945 18.1957 16.9755 18.3631 16.7746 18.4821C16.6704 18.5417 16.5551 18.5714 16.4286 18.5714C16.3467 18.5714 16.2575 18.5528 16.1607 18.5156L11.1049 16.4509L8.40404 19.7433C8.27011 19.9144 8.08782 20 7.85716 20C7.76044 20 7.67859 19.9851 7.61163 19.9554C7.47026 19.9033 7.35679 19.8158 7.27122 19.6931C7.18566 19.5703 7.14288 19.4345 7.14288 19.2857V15.3906L16.7857 3.57143L4.85493 13.8951L0.446448 12.0871C0.17115 11.9829 0.0223408 11.7783 1.93762e-05 11.4732C-0.0148616 11.1756 0.104186 10.9561 0.357162 10.8147L18.9286 0.100446C19.0402 0.0334821 19.1592 0 19.2857 0C19.4345 0 19.5685 0.0409226 19.6875 0.122768Z" fill="#fb1"/>
</g>
<defs>
<clipPath id="clip0_50_630">
<rect width="20" height="20" fill="white"/>
</clipPath>
</defs>
</svg>
