<svg width="35" height="35" viewBox="0 0 35 35" fill="none" xmlns="http://www.w3.org/2000/svg">
<path opacity="0.2" d="M27.3438 8.75V10.9375H24.0625C23.4823 10.9375 22.9259 11.168 22.5157 11.5782C22.1055 11.9884 21.875 12.5448 21.875 13.125V24.0625H5.46875C4.88859 24.0625 4.33219 23.832 3.92195 23.4218C3.51172 23.0116 3.28125 22.4552 3.28125 21.875V8.75C3.28125 8.16984 3.51172 7.61344 3.92195 7.2032C4.33219 6.79297 4.88859 6.5625 5.46875 6.5625H25.1562C25.7364 6.5625 26.2928 6.79297 26.703 7.2032C27.1133 7.61344 27.3438 8.16984 27.3438 8.75Z" fill="#FFBB11"/>
<path d="M30.625 9.84375H28.4375V8.75C28.4375 7.87976 28.0918 7.04516 27.4764 6.42981C26.8611 5.81445 26.0265 5.46875 25.1562 5.46875H5.46875C4.59851 5.46875 3.76391 5.81445 3.14856 6.42981C2.5332 7.04516 2.1875 7.87976 2.1875 8.75V21.875C2.1875 22.7452 2.5332 23.5798 3.14856 24.1952C3.76391 24.8105 4.59851 25.1562 5.46875 25.1562H20.7812V26.25C20.7813 27.1202 21.127 27.9548 21.7423 28.5702C22.3577 29.1855 23.1923 29.5312 24.0625 29.5312H30.625C31.4952 29.5312 32.3298 29.1855 32.9452 28.5702C33.5605 27.9548 33.9062 27.1202 33.9062 26.25V13.125C33.9062 12.2548 33.5605 11.4202 32.9452 10.8048C32.3298 10.1895 31.4952 9.84375 30.625 9.84375ZM5.46875 22.9688C5.17867 22.9688 4.90047 22.8535 4.69535 22.6484C4.49023 22.4433 4.375 22.1651 4.375 21.875V8.75C4.375 8.45992 4.49023 8.18172 4.69535 7.9766C4.90047 7.77148 5.17867 7.65625 5.46875 7.65625H25.1562C25.4463 7.65625 25.7245 7.77148 25.9296 7.9766C26.1348 8.18172 26.25 8.45992 26.25 8.75V9.84375H24.0625C23.1923 9.84375 22.3577 10.1895 21.7423 10.8048C21.127 11.4202 20.7813 12.2548 20.7812 13.125V22.9688H5.46875ZM31.7188 26.25C31.7188 26.5401 31.6035 26.8183 31.3984 27.0234C31.1933 27.2285 30.9151 27.3438 30.625 27.3438H24.0625C23.7724 27.3438 23.4942 27.2285 23.2891 27.0234C23.084 26.8183 22.9688 26.5401 22.9688 26.25V13.125C22.9688 12.8349 23.084 12.5567 23.2891 12.3516C23.4942 12.1465 23.7724 12.0312 24.0625 12.0312H30.625C30.9151 12.0312 31.1933 12.1465 31.3984 12.3516C31.6035 12.5567 31.7188 12.8349 31.7188 13.125V26.25ZM18.5938 28.4375C18.5938 28.7276 18.4785 29.0058 18.2734 29.2109C18.0683 29.416 17.7901 29.5312 17.5 29.5312H12.0312C11.7412 29.5312 11.463 29.416 11.2579 29.2109C11.0527 29.0058 10.9375 28.7276 10.9375 28.4375C10.9375 28.1474 11.0527 27.8692 11.2579 27.6641C11.463 27.459 11.7412 27.3438 12.0312 27.3438H17.5C17.7901 27.3438 18.0683 27.459 18.2734 27.6641C18.4785 27.8692 18.5938 28.1474 18.5938 28.4375ZM29.5312 15.3125C29.5312 15.6026 29.416 15.8808 29.2109 16.0859C29.0058 16.291 28.7276 16.4062 28.4375 16.4062H26.25C25.9599 16.4062 25.6817 16.291 25.4766 16.0859C25.2715 15.8808 25.1562 15.6026 25.1562 15.3125C25.1562 15.0224 25.2715 14.7442 25.4766 14.5391C25.6817 14.334 25.9599 14.2188 26.25 14.2188H28.4375C28.7276 14.2188 29.0058 14.334 29.2109 14.5391C29.416 14.7442 29.5312 15.0224 29.5312 15.3125Z" fill="#FFBB11"/>
</svg>
